<?xml version="1.0" encoding="UTF-8"?>
<svg xmlns="http://www.w3.org/2000/svg" xmlns:xlink="http://www.w3.org/1999/xlink" width="98px" height="58px" viewBox="0 0 98 58" version="1.1">
<g id="surface1">
<path style=" stroke:none;fill-rule:nonzero;fill:rgb(0%,0%,0%);fill-opacity:1;" d="M 22.296875 14.144531 C 18.03125 14.988281 14.597656 17.234375 12.378906 20.636719 C 11.125 22.574219 10.484375 24.175781 10.046875 26.621094 L 9.695312 28.464844 L 8.792969 28.464844 C 7.933594 28.464844 7.339844 28.753906 7.339844 29.179688 C 7.339844 29.265625 7.867188 29.355469 8.507812 29.355469 L 9.671875 29.355469 L 10.023438 31.289062 C 10.464844 33.738281 11.082031 35.425781 12.136719 36.984375 C 14.796875 40.941406 18.316406 43.164062 23 43.832031 C 28.300781 44.566406 33.757812 42.054688 36.816406 37.429688 C 38.066406 35.539062 38.707031 33.914062 39.210938 31.355469 L 39.585938 29.46875 L 40.664062 29.398438 C 42.179688 29.3125 42.421875 29.222656 42.09375 28.800781 C 41.917969 28.578125 41.410156 28.464844 40.6875 28.464844 L 39.542969 28.464844 L 39.167969 26.398438 C 38.136719 20.839844 34.242188 16.367188 28.894531 14.65625 C 27.488281 14.210938 23.550781 13.898438 22.296875 14.144531 Z M 28.675781 15.613281 C 30.722656 16.28125 31.929688 16.945312 33.492188 18.234375 C 36.15625 20.503906 37.914062 23.796875 38.441406 27.511719 L 38.574219 28.464844 L 10.859375 28.464844 L 10.859375 27.730469 C 10.859375 26.621094 11.453125 24.53125 12.269531 22.773438 C 13.632812 19.859375 17.128906 16.746094 20.207031 15.722656 C 22.847656 14.835938 26.167969 14.789062 28.675781 15.613281 Z M 38.398438 30.246094 C 38.179688 33.160156 36.59375 36.628906 34.527344 38.761719 C 31.886719 41.496094 28.457031 42.964844 24.761719 42.945312 C 22.277344 42.921875 20.625 42.542969 18.359375 41.453125 C 16.316406 40.496094 13.519531 37.738281 12.445312 35.648438 C 11.675781 34.183594 10.859375 31.3125 10.859375 30.089844 L 10.859375 29.355469 L 24.671875 29.398438 L 38.464844 29.46875 Z M 38.398438 30.246094 "/>
<path style=" stroke:none;fill-rule:nonzero;fill:rgb(0%,0%,0%);fill-opacity:1;" d="M 53.375 24.128906 C 51.53125 25.0625 50.671875 26.710938 50.671875 29.265625 C 50.671875 32 52.433594 34.136719 54.894531 34.402344 C 56.410156 34.558594 57.050781 34.402344 57.90625 33.671875 L 58.566406 33.113281 L 58.722656 33.671875 C 58.832031 34.113281 58.984375 34.246094 59.492188 34.246094 L 60.128906 34.246094 L 60.128906 28.6875 L 55.949219 28.6875 L 55.949219 30.246094 L 57.050781 30.246094 C 58.238281 30.246094 58.371094 30.421875 57.886719 31.46875 C 57.359375 32.667969 55.554688 33.046875 54.234375 32.246094 C 52.320312 31.066406 52.34375 26.976562 54.28125 25.773438 C 55.402344 25.085938 56.300781 25.21875 57.3125 26.242188 C 58.039062 26.976562 58.347656 27.132812 59.050781 27.132812 C 60.019531 27.132812 60.128906 26.867188 59.601562 25.84375 C 58.523438 23.730469 55.707031 22.972656 53.375 24.128906 Z M 53.375 24.128906 "/>
<path style=" stroke:none;fill-rule:nonzero;fill:rgb(0%,0%,0%);fill-opacity:1;" d="M 79.265625 29.023438 L 79.265625 34.246094 L 81.464844 34.246094 L 81.464844 32.515625 C 81.464844 30.890625 81.507812 30.734375 82.082031 30.179688 C 82.410156 29.84375 82.761719 29.578125 82.828125 29.578125 C 82.894531 29.578125 83.621094 30.625 84.433594 31.914062 L 85.929688 34.246094 L 87.226562 34.246094 C 87.933594 34.246094 88.503906 34.160156 88.503906 34.070312 C 88.503906 33.980469 87.558594 32.558594 86.414062 30.914062 L 84.300781 27.933594 L 86.195312 26.019531 C 87.226562 24.976562 88.0625 24.039062 88.0625 23.953125 C 88.0625 23.863281 87.535156 23.796875 86.875 23.796875 L 85.710938 23.796875 L 83.6875 25.910156 C 82.5625 27.066406 81.621094 28.019531 81.574219 28.019531 C 81.507812 28.019531 81.464844 27.066406 81.464844 25.910156 L 81.464844 23.796875 L 79.265625 23.796875 Z M 79.265625 29.023438 "/>
<path style=" stroke:none;fill-rule:nonzero;fill:rgb(0%,0%,0%);fill-opacity:1;" d="M 89.605469 24.574219 C 89.605469 25.351562 89.605469 25.351562 90.59375 25.351562 C 91.582031 25.351562 91.582031 25.351562 91.582031 24.574219 C 91.582031 23.796875 91.582031 23.796875 90.59375 23.796875 C 89.605469 23.796875 89.605469 23.796875 89.605469 24.574219 Z M 89.605469 24.574219 "/>
<path style=" stroke:none;fill-rule:nonzero;fill:rgb(0%,0%,0%);fill-opacity:1;" d="M 63.824219 26.710938 C 62.988281 26.953125 61.890625 28.019531 61.890625 28.601562 C 61.890625 29.179688 63.539062 29 64.175781 28.355469 C 64.835938 27.6875 65.695312 27.644531 66.289062 28.242188 C 67.125 29.089844 66.75 29.535156 64.945312 29.824219 C 63.144531 30.113281 62.394531 30.421875 62 31 C 61.625 31.535156 61.558594 32.757812 61.890625 33.382812 C 62.460938 34.449219 64.484375 34.78125 65.890625 34.027344 C 66.550781 33.671875 66.707031 33.648438 66.816406 33.914062 C 66.882812 34.136719 67.257812 34.246094 67.828125 34.246094 L 68.707031 34.246094 L 68.6875 31.402344 C 68.664062 28.109375 68.574219 27.664062 67.804688 27.085938 C 67.125 26.578125 65.011719 26.375 63.824219 26.710938 Z M 66.664062 31.492188 C 66.484375 32.625 65.957031 33.136719 64.96875 33.136719 C 64.066406 33.136719 63.648438 32.824219 63.648438 32.113281 C 63.648438 31.492188 64.023438 31.203125 65.101562 30.933594 C 66.707031 30.558594 66.792969 30.601562 66.664062 31.492188 Z M 66.664062 31.492188 "/>
<path style=" stroke:none;fill-rule:nonzero;fill:rgb(0%,0%,0%);fill-opacity:1;" d="M 73.65625 26.664062 C 73.390625 26.777344 73.0625 27.019531 72.910156 27.222656 C 72.511719 27.710938 72.226562 27.664062 72.226562 27.109375 C 72.226562 26.730469 72.117188 26.664062 71.324219 26.730469 L 70.445312 26.796875 L 70.445312 34.136719 L 71.324219 34.203125 L 72.226562 34.269531 L 72.226562 32.023438 C 72.226562 29.3125 72.535156 28.355469 73.503906 28.132812 C 75.019531 27.796875 75.59375 28.976562 75.503906 32.203125 L 75.460938 34.136719 L 76.382812 34.203125 L 77.308594 34.269531 L 77.242188 31.046875 C 77.175781 27.933594 77.152344 27.777344 76.625 27.242188 C 76.011719 26.644531 74.425781 26.332031 73.65625 26.664062 Z M 73.65625 26.664062 "/>
<path style=" stroke:none;fill-rule:nonzero;fill:rgb(0%,0%,0%);fill-opacity:1;" d="M 89.605469 30.46875 L 89.605469 34.246094 L 91.582031 34.246094 L 91.582031 26.6875 L 89.605469 26.6875 Z M 89.605469 30.46875 "/>
</g>
</svg>
